<?xml version="1.0" encoding="UTF-8"?>
<svg width="25px" height="24px" viewBox="0 0 25 24" version="1.1" xmlns="http://www.w3.org/2000/svg" xmlns:xlink="http://www.w3.org/1999/xlink">
    <title>C3324520-611D-4341-B0A4-81B3351474C4</title>
    <g id="Main-Feature" stroke="none" stroke-width="1" fill="none" fill-rule="evenodd">
        <g id="00.-Bosung" transform="translate(-550.000000, -168.000000)" fill="#0B0F17">
            <g id="Info" transform="translate(135.000000, 112.000000)">
                <g id="Card-/-Info" transform="translate(400.000000, 48.000000)">
                    <g id="Icon/Base" transform="translate(16.000000, 8.000000)">
                        <g id="Gauge" transform="translate(0.000000, -0.000000)">
                            <path d="M12.0454545,13.0454545 C12.2868212,13.067397 12.4780576,13.2586334 12.5,13.5 L12.9094643,18.0041068 C12.9551264,18.50639 12.5849618,18.9505875 12.0826786,18.9962496 L12,19 C11.4956455,19 11.0867854,18.5911399 11.0867854,18.0867854 L11.0905357,18.0041068 L11.5,13.5 C11.5251039,13.2238576 11.7693122,13.0203507 12.0454545,13.0454545 Z M12,5 C17.5228475,5 22.0001117,9.4771525 22.0001117,15 C22.0001117,15.3378756 21.8092453,16.0018544 21.0405922,16 L18.8,16 C18.2477153,16 17.8,15.5522847 17.8,15 C17.8,14.4871642 18.1860402,14.0644928 18.6833789,14.0067277 L18.8,14 L19.9381123,14.0000487 C19.7714331,12.6633215 19.2749669,11.4290096 18.5327022,10.3811015 L17.6618795,11.2523341 C17.2713552,11.6428584 16.6381902,11.6428584 16.2476659,11.2523341 C15.8850362,10.8897044 15.8591341,10.317859 16.1699596,9.92534131 L16.2476659,9.8381205 L17.1809612,8.90408325 C16.1473801,8.024776 14.381075,7.19036172 13,6.99823825 L13,8.6828995 C13,9.23518425 12.5522847,9.6828995 12,9.6828995 C11.4871642,9.6828995 11.0644928,9.29685931 11.0067277,8.79952063 L11,8.6828995 L11.0005231,6.99823825 C9.47146401,7.09243089 8.5586031,7.63323812 7.38110154,8.4672978 L8.75233406,9.8381205 C9.14285835,10.2286448 9.14285835,10.8618098 8.75233406,11.2523341 C8.38970436,11.6149638 7.81785897,11.6408659 7.42534131,11.3300404 L7.3381205,11.2523341 L5.90408325,9.81903884 C4.92006757,10.9756994 4.25941076,12.415961 4.06188768,14.0000487 L5.7,14 C6.25228475,14 6.7,14.4477153 6.7,15 C6.7,15.5128358 6.31395968,15.9355072 5.816621,15.9932723 L5.7,16 C4.27488751,16.0007341 3.35720504,16.0011011 2.94695258,16.0011011 C2.33157389,16.0011011 2,15.3378756 2,15 C2,9.4771525 6.4771525,5 12,5 Z" id="Main"></path>
                        </g>
                    </g>
                </g>
            </g>
        </g>
    </g>
</svg>