<?xml version="1.0" encoding="UTF-8"?>
<svg width="24px" height="24px" viewBox="0 0 24 24" version="1.1" xmlns="http://www.w3.org/2000/svg" xmlns:xlink="http://www.w3.org/1999/xlink">
    <title>E2E57B54-8424-4B41-9888-40BAEDD1509E</title>
    <g id="Main-Feature" stroke="none" stroke-width="1" fill="none" fill-rule="evenodd">
        <g id="00.-Bosung" transform="translate(-151.000000, -120.000000)" fill="#0B0F17">
            <g id="Info" transform="translate(135.000000, 112.000000)">
                <g id="Card-/-Info">
                    <g id="Icon/Base" transform="translate(16.000000, 8.000000)">
                        <g id="Transaction">
                            <path d="M17.7534247,2 C20.0244375,2 21.8905773,3.87831158 21.99536,6.22042 L22,6.42824426 L22,20.9985963 C22,21.727974 21.282157,22.1988447 20.6622873,21.9175182 L20.5653462,21.8667753 L15.2875342,18.7207646 L10.0099962,21.8667753 C9.40269932,22.228648 8.65449152,21.8123398 8.58118898,21.111541 L8.57534247,20.9985963 L8.575,14.284 L2.95890411,14.2848067 C2.46714372,14.2848067 2.06184245,13.898795 2.00645125,13.401493 L2,13.2848805 L2,6.42824426 C2,3.99042534 3.90876805,2 6.24657534,2 L6.24657534,2 L17.7534247,2 Z M10.4930137,19.2747237 L14.8119216,16.7020992 C15.0698702,16.5483942 15.3791953,16.5291811 15.6499881,16.6444598 L15.7634209,16.7020992 L20.0820548,19.2747237 L20.0821918,6.42824426 C20.0821918,5.14824647 19.1143864,4.08783836 17.905711,4.0050537 L17.7534247,3.99985225 L9.79332225,3.99856407 C10.2353989,4.69699801 10.4931507,5.53241409 10.4931507,6.42824426 L10.4931507,6.42824426 L10.4930137,19.2747237 Z M6.24657534,3.99985225 C4.96794428,3.99985225 3.91780822,5.09491323 3.91780822,6.42824426 L3.91780822,6.42824426 L3.91780822,12.2842402 L8.57520548,12.2842402 L8.57534247,6.42824426 C8.57534247,5.14824647 7.60753707,4.08783836 6.39886171,4.0050537 L6.39886171,4.0050537 Z" id="Main"></path>
                        </g>
                    </g>
                </g>
            </g>
        </g>
    </g>
</svg>