<?xml version="1.0" encoding="UTF-8"?>
<svg width="24px" height="24px" viewBox="0 0 24 24" version="1.1" xmlns="http://www.w3.org/2000/svg" xmlns:xlink="http://www.w3.org/1999/xlink">
    <title>37B922F8-7B19-4E66-BEC5-F707D50C3786</title>
    <g id="Main-Feature" stroke="none" stroke-width="1" fill="none" fill-rule="evenodd">
        <g id="00.-Bosung" transform="translate(-151.000000, -216.000000)" fill="#0B0F17">
            <g id="Info" transform="translate(135.000000, 112.000000)">
                <g id="Card-/-Info" transform="translate(0.000000, 96.000000)">
                    <g id="Icon/Base" transform="translate(16.000000, 8.000000)">
                        <g id="Status">
                            <path d="M14.7019703,2 C14.9954373,2 15.2709647,2.14123256 15.4385007,2.37725532 C15.5853925,2.58040342 15.6409079,2.83405698 15.5953532,3.07649167 L15.5641084,3.19648834 L13.3648524,9.79142857 L16.433572,9.79220779 C16.677644,9.79220779 16.9081289,9.89021612 17.0769495,10.0591022 L17.1559985,10.1493262 L17.2234347,10.2506094 C17.3633994,10.497138 17.3801274,10.7938914 17.27261,11.0516156 L17.2189213,11.1594191 L11.1589798,21.5478865 C10.9956205,21.8297262 10.6947532,22 10.3729659,22 C10.2736711,22 10.1761477,21.9841349 10.0876622,21.9534547 C9.71398889,21.8300091 9.46614954,21.4820837 9.46383692,21.0959628 L9.46938358,20.9898501 L10.2219952,14.207619 L6.90976248,14.2077922 C6.69014966,14.2077922 6.48069438,14.1287126 6.31804976,13.9893279 L6.24079803,13.9146971 L6.17236621,13.8305369 C6.0254745,13.6273888 5.9699591,13.3737352 6.01551039,13.1313108 L6.04675312,13.0113201 L9.51062433,2.6197211 C9.62321271,2.28685109 9.91528918,2.05117301 10.2572932,2.00736609 L10.3729659,2 L14.7019703,2 Z M13.4391381,3.81809524 L11.0277095,3.81809524 L8.16961428,12.3895238 L11.2387668,12.3896104 C11.4603208,12.3896104 11.671336,12.4702714 11.8372728,12.6149676 L11.9163247,12.692575 C12.0646017,12.8580208 12.1460255,13.0705788 12.1480261,13.2897864 L12.1423495,13.399757 L11.7505667,16.9247619 L14.8505667,11.6095238 L12.1045677,11.6103896 C11.8483527,11.6103896 11.6059633,11.5027535 11.4356032,11.3172945 L11.3671714,11.2331343 C11.2202797,11.0299862 11.1647643,10.7763326 11.210319,10.5338979 L11.2415637,10.4139013 L13.4391381,3.81809524 Z" id="Main"></path>
                        </g>
                    </g>
                </g>
            </g>
        </g>
    </g>
</svg>