<?xml version="1.0" encoding="UTF-8"?>
<svg width="25px" height="24px" viewBox="0 0 25 24" version="1.1" xmlns="http://www.w3.org/2000/svg" xmlns:xlink="http://www.w3.org/1999/xlink">
    <title>32C5E4E1-AE46-4C59-8F16-14A8504A9FF2</title>
    <g id="Main-Feature" stroke="none" stroke-width="1" fill="none" fill-rule="evenodd">
        <g id="00.-Bosung" transform="translate(-151.000000, -264.000000)" fill="#0B0F17">
            <g id="Info" transform="translate(135.000000, 112.000000)">
                <g id="Card-/-Info" transform="translate(0.000000, 144.000000)">
                    <g id="Icon/Base" transform="translate(16.000000, 8.000000)">
                        <g id="Type" transform="translate(-0.000000, 0.000000)">
                            <path d="M18.0833333,1.41666667 C18.6356181,1.41666667 19.0833333,1.86438192 19.0833333,2.41666667 L19.0833333,2.41666667 L19.0833333,9.08333333 C19.0833333,9.63561808 18.6356181,10.0833333 18.0833333,10.0833333 L18.0833333,10.0833333 L16,10.0833333 C15.7129994,10.0833333 15.439833,9.9600216 15.25,9.74477116 L15.25,9.74477116 L15.2506803,15.1237011 C16.0720623,15.9122804 16.5833333,17.0214333 16.5833333,18.25 C16.5833333,20.6432339 14.6432339,22.5833333 12.25,22.5833333 C9.85676608,22.5833333 7.91666667,20.6432339 7.91666667,18.25 C7.91666667,17.0214333 8.42793766,15.9122804 9.24931971,15.1237011 L9.25,9.74477116 C9.06016696,9.9600216 8.78700058,10.0833333 8.5,10.0833333 L8.5,10.0833333 L6.41666667,10.0833333 C5.86438192,10.0833333 5.41666667,9.63561808 5.41666667,9.08333333 L5.41666667,9.08333333 L5.41666667,2.41666667 C5.41666667,1.86438192 5.86438192,1.41666667 6.41666667,1.41666667 L6.41666667,1.41666667 Z M14.5425501,18.6866262 C13.9815318,19.0676637 13.1485589,19.25 12.25,19.25 C11.350883,19.25 10.5174334,19.0674372 9.95837158,18.6866446 C10.1624663,19.7671025 11.1109127,20.5833333 12.25,20.5833333 C13.389436,20.5833333 14.3381143,19.7666027 14.5425501,18.6866262 Z M12.25,15.9166667 C11.8920377,15.9166667 11.5529021,15.9972738 11.2497546,16.141327 L11.25,17.093 L11.3322542,17.123964 C11.5311855,17.188603 11.7904003,17.2330354 12.0758525,17.2460506 L12.25,17.25 C12.6035025,17.25 12.9290282,17.2015309 13.1677458,17.123964 L13.25,17.093 L13.2509091,16.1416425 C12.9475929,15.9973916 12.6082236,15.9166667 12.25,15.9166667 Z M12.25,8.39052247 C11.90911,8.39052247 11.5730993,8.43401427 11.2492466,8.51771214 L11.2501521,14.0325853 C11.5711186,13.9567798 11.9058749,13.9166667 12.25,13.9166667 C12.5941644,13.9166667 12.9289578,13.956789 13.2499579,14.0326113 L13.2507534,8.51771214 C12.9269007,8.43401427 12.59089,8.39052247 12.25,8.39052247 Z M17.0826667,5.99966667 L7.41566667,5.99966667 L7.416,8.083 L8.073,8.083 L8.12581779,8.03260893 C9.16972598,7.04458048 10.5370776,6.46178851 11.9788553,6.39664354 L11.9788553,6.39664354 L12.25,6.39052247 C13.79074,6.39052247 15.2650298,6.9828287 16.3741822,8.03260893 L16.3741822,8.03260893 L16.426,8.083 L17.083,8.083 L17.0826667,5.99966667 Z M17.083,3.416 L7.416,3.416 L7.41566667,3.99966667 L17.0826667,3.99966667 L17.083,3.416 Z" id="Main"></path>
                        </g>
                    </g>
                </g>
            </g>
        </g>
    </g>
</svg>