<?xml version="1.0" encoding="UTF-8"?>
<svg width="25px" height="24px" viewBox="0 0 25 24" version="1.1" xmlns="http://www.w3.org/2000/svg" xmlns:xlink="http://www.w3.org/1999/xlink">
    <title>AA6197E0-7803-429E-ACE4-27650CA7348F</title>
    <g id="Main-Feature" stroke="none" stroke-width="1" fill="none" fill-rule="evenodd">
        <g id="00.-Bosung" transform="translate(-550.000000, -216.000000)" fill="#0B0F17">
            <g id="Info" transform="translate(135.000000, 112.000000)">
                <g id="Card-/-Info" transform="translate(400.000000, 96.000000)">
                    <g id="Icon/Base" transform="translate(16.000000, 8.000000)">
                        <g id="Gear" transform="translate(-0.000000, -0.000000)">
                            <path d="M9.77071961,3.04090991 C10.9940131,1.65298365 13.2708925,1.65302717 14.4940249,3.04105765 C15.0857007,3.71252407 15.3425708,4.5508659 15.2297697,5.44102459 C15.2223189,5.49981846 15.2153103,5.55558095 15.2085082,5.6103699 L15.2085082,5.6103699 L14.7837768,9.3525168 C14.7214228,9.84541328 14.3014871,10.2124522 13.8098204,10.2117877 L13.8098204,10.2117877 L13.1177251,10.2120146 L13.1177251,13.7800146 L13.2634308,13.7804435 C14.723412,13.7804435 15.99235,14.7470886 16.4068522,16.1105318 L16.4068522,16.1105318 L16.4337251,16.2110146 L16.5148351,16.2326207 C17.4822072,16.5278623 18.2269569,17.3701256 18.5190699,18.4157687 L18.5190699,18.4157687 L18.5337251,18.4760146 L18.5700039,18.4796466 C20.1028249,18.6586503 21.1834323,19.9696889 21.2613746,21.5940513 L21.2613746,21.5940513 L21.2658869,21.7828216 C21.2658869,22.3266985 20.8249685,22.767617 20.2810916,22.767617 L20.2810916,22.767617 L3.98479532,22.767617 C3.44091846,22.767617 3,22.3266985 3,21.7828216 C3,20.8957774 3.28758891,20.0972491 3.82712721,19.4750982 C4.32287042,18.9034621 4.93578082,18.571569 5.65476299,18.4829779 L5.65476299,18.4829779 L5.73172515,18.4750146 L5.74683239,18.4157539 C6.03897366,17.3701164 6.78368852,16.5278867 7.75105471,16.2326564 L7.75105471,16.2326564 L7.83172515,16.2110146 L7.85902283,16.1105815 C8.25546998,14.8064166 9.43370099,13.8652894 10.8131218,13.7859176 L10.8131218,13.7859176 L11.0024172,13.7804825 L11.1477251,13.7800146 L11.1477251,10.2130146 L10.4564133,10.2140107 C9.96453057,10.2140107 9.55504382,9.85279027 9.48519829,9.40631318 L9.48519829,9.40631318 L9.47522631,9.30189219 C9.44231047,9.04076724 9.41328369,8.79874278 9.380405,8.5101111 L9.380405,8.5101111 L9.16704747,6.56299243 L9.03478392,5.4406121 C8.92211486,4.55043714 9.17905412,3.71214097 9.77071961,3.04090991 Z M18.2862378,20.0284357 L5.97968811,20.0284357 L5.97968811,20.0284357 C5.31641326,20.0284357 4.81512671,20.5774025 4.64288499,21.1980263 L19.6230409,21.1980263 C19.4508382,20.5773635 18.9495127,20.0284357 18.2862378,20.0284357 Z M15.7588304,17.6892544 L8.50709552,17.6892544 L8.50709552,17.6892544 C7.86994152,17.6892544 7.40674464,18.2609503 7.25060429,18.858806 L17.0153216,18.858806 C16.8591813,18.2609113 16.3959844,17.6892544 15.7588304,17.6892544 Z M13.2634698,15.3500731 L11.0024561,15.3500731 C10.2580117,15.3500731 9.60846004,15.8326852 9.37641326,16.5196637 L14.8895127,16.5196637 C14.6573879,15.8326852 14.0079532,15.3500731 13.2634698,15.3500731 Z M11.4462768,3.70075536 C11.0769201,3.86757797 10.754308,4.23354289 10.6355166,4.61993665 C10.5759064,4.81389376 10.5595322,5.02313353 10.5875244,5.24418616 C10.7254191,6.33385478 10.8466667,7.56629142 10.9723977,8.64438109 L13.2928265,8.64438109 C13.4180507,7.56668129 13.5392982,6.33190546 13.677115,5.24449805 C13.7333333,4.80091131 13.6138402,4.41467349 13.3168031,4.07759747 C12.8660819,3.56625244 12.0558674,3.42543372 11.4462768,3.70075536 Z" id="Main"></path>
                        </g>
                    </g>
                </g>
            </g>
        </g>
    </g>
</svg>