<?xml version="1.0" encoding="UTF-8"?>
<svg width="24px" height="24px" viewBox="0 0 24 24" version="1.1" xmlns="http://www.w3.org/2000/svg" xmlns:xlink="http://www.w3.org/1999/xlink">
    <title>00D96E5A-B721-4D9C-B4F4-1498B9F704BC</title>
    <g id="Main-Feature" stroke="none" stroke-width="1" fill="none" fill-rule="evenodd">
        <g id="00.-Bosung" transform="translate(-151.000000, -168.000000)" fill="#0B0F17">
            <g id="Info" transform="translate(135.000000, 112.000000)">
                <g id="Card-/-Info" transform="translate(0.000000, 48.000000)">
                    <g id="Icon/Base" transform="translate(16.000000, 8.000000)">
                        <g id="Calendar">
                            <path d="M8,2 C7.44772,2 7,2.44772 7,3 L7,4 L6,4 C4.34315,4 3,5.34315 3,7 L3,9 L3,19 C3,20.6569 4.34315,22 6,22 L18,22 C19.6569,22 21,20.6569 21,19 L21,9 L21,7 C21,5.34315 19.6569,4 18,4 L17,4 L17,3 C17,2.44772 16.5523,2 16,2 C15.4477,2 15,2.44772 15,3 L15,4 L9,4 L9,3 C9,2.44772 8.55228,2 8,2 Z M16,6 L8,6 L6,6 C5.44772,6 5,6.44772 5,7 L5,8 L19,8 L19,7 C19,6.44772 18.5523,6 18,6 L16,6 Z M5,19 L5,10 L19,10 L19,19 C19,19.5523 18.5523,20 18,20 L6,20 C5.44772,20 5,19.5523 5,19 Z M7,13 C7,12.4477 7.44772,12 8,12 L10,12 C10.5523,12 11,12.4477 11,13 L11,15 C11,15.5523 10.5523,16 10,16 L8,16 C7.44772,16 7,15.5523 7,15 L7,13 Z" id="Main"></path>
                        </g>
                    </g>
                </g>
            </g>
        </g>
    </g>
</svg>